<svg width="25" height="25" viewBox="0 0 25 25" fill="none" xmlns="http://www.w3.org/2000/svg">
<path d="M24.4826 12.2952L13.1237 0.273787C13.042 0.186997 12.9448 0.118142 12.8379 0.0711619C12.7309 0.024182 12.6163 0 12.5005 0C12.3847 0 12.2701 0.024182 12.1632 0.0711619C12.0562 0.118142 11.9591 0.186997 11.8773 0.273787L0.518442 12.2952C0.187522 12.6457 0 13.1217 0 13.6182C0 14.6492 0.791451 15.4874 1.76491 15.4874H2.96174V24.0654C2.96174 24.5823 3.35608 25 3.84419 25H10.7356V18.4577H13.8242V25H21.1568C21.645 25 22.0393 24.5823 22.0393 24.0654V15.4874H23.2361C23.7049 15.4874 24.1544 15.2918 24.4853 14.9384C25.172 14.2082 25.172 13.0253 24.4826 12.2952Z" fill="#6AB1D7"/>
</svg>
