<svg width="25" height="25" viewBox="0 0 25 25" fill="none" xmlns="http://www.w3.org/2000/svg">
<path d="M23.4375 9.72223H25V25H0V9.72223H1.5625V6.94445C1.5625 3.11112 5.0625 6.31297e-06 9.375 6.31297e-06C10.4844 6.31297e-06 11.5469 0.20834 12.5 0.58334C13.4845 0.197404 14.549 -0.0012911 15.625 6.31297e-06C19.9375 6.31297e-06 23.4375 3.11112 23.4375 6.94445V9.72223ZM4.6875 6.94445V9.72223H7.8125V6.94445C7.8125 5.37501 8.42188 3.94445 9.40625 2.77778H9.375C6.79688 2.77778 4.6875 4.65278 4.6875 6.94445ZM20.3125 9.72223V6.94445C20.3125 4.65278 18.2031 2.77778 15.625 2.77778H15.5937C16.6212 3.97539 17.1808 5.43836 17.1875 6.94445V9.72223H20.3125ZM12.5 3.86112C11.5469 4.62501 10.9375 5.72223 10.9375 6.94445V9.72223H14.0625V6.94445C14.0625 5.72223 13.4531 4.62501 12.5 3.86112Z" fill="white"/>
</svg>
