<svg width="25" height="25" viewBox="0 0 25 25" fill="none" xmlns="http://www.w3.org/2000/svg">
<path d="M12.5 0C10.7955 0 9.46378 0.657242 8.50497 1.97173C7.54616 3.28621 7.06676 4.96652 7.06676 7.01265C7.05492 9.55481 7.83617 11.5699 9.41051 13.058C9.61174 13.2564 9.68277 13.5107 9.62358 13.8207L9.2152 14.7135C9.08499 15.0112 8.89264 15.2437 8.63814 15.4111C8.38364 15.5785 7.84801 15.8172 7.03125 16.1272C6.99574 16.1396 6.24704 16.3938 4.78516 16.8899C3.32327 17.3859 2.54498 17.6587 2.45028 17.7083C1.45597 18.1424 0.804924 18.595 0.497159 19.0662C0.16572 19.8475 0 21.8254 0 25H25C25 21.8254 24.8343 19.8475 24.5028 19.0662C24.1951 18.595 23.544 18.1424 22.5497 17.7083C22.455 17.6587 21.6767 17.3859 20.2148 16.8899C18.753 16.3938 18.0043 16.1396 17.9688 16.1272C17.152 15.8172 16.6164 15.5785 16.3619 15.4111C16.1074 15.2437 15.915 15.0112 15.7848 14.7135L15.3764 13.8207C15.3172 13.5107 15.3883 13.2564 15.5895 13.058C17.1638 11.5699 17.9451 9.55481 17.9332 7.01265C17.9332 4.96652 17.4538 3.28621 16.495 1.97173C15.5362 0.657242 14.2045 0 12.5 0Z" fill="#6AB1D7"/>
</svg>
