<svg width="20" height="20" viewBox="0 0 20 20" fill="none" xmlns="http://www.w3.org/2000/svg">
<path d="M14.6777 12.9295C15.8881 11.2779 16.4302 9.23016 16.1956 7.19598C15.961 5.16181 14.967 3.29122 13.4124 1.95846C11.8579 0.625697 9.85739 -0.0709498 7.81125 0.00789168C5.76511 0.0867331 3.82419 0.935248 2.37679 2.38368C0.929396 3.83211 0.0822699 5.77364 0.00489264 7.81984C-0.0724846 9.86604 0.625593 11.866 1.95947 13.4196C3.29334 14.9732 5.16464 15.9659 7.19898 16.199C9.23332 16.4322 11.2807 15.8886 12.9315 14.677H12.9302C12.9677 14.727 13.0077 14.7745 13.0527 14.8208L17.8652 19.6333C18.0996 19.8678 18.4176 19.9997 18.7491 19.9998C19.0807 19.9999 19.3988 19.8683 19.6333 19.6339C19.8679 19.3995 19.9997 19.0816 19.9998 18.75C20 18.4184 19.8683 18.1003 19.634 17.8658L14.8215 13.0533C14.7768 13.0081 14.7287 12.9663 14.6777 12.9283V12.9295ZM15.0002 8.12455C15.0002 9.02738 14.8224 9.92138 14.4769 10.7555C14.1314 11.5896 13.625 12.3475 12.9866 12.9859C12.3482 13.6243 11.5903 14.1307 10.7562 14.4762C9.92204 14.8217 9.02804 14.9995 8.12521 14.9995C7.22237 14.9995 6.32837 14.8217 5.49426 14.4762C4.66014 14.1307 3.90225 13.6243 3.26385 12.9859C2.62544 12.3475 2.11904 11.5896 1.77354 10.7555C1.42803 9.92138 1.25021 9.02738 1.25021 8.12455C1.25021 6.30118 1.97454 4.5525 3.26385 3.26319C4.55316 1.97387 6.30184 1.24955 8.12521 1.24955C9.94857 1.24955 11.6973 1.97387 12.9866 3.26319C14.2759 4.5525 15.0002 6.30118 15.0002 8.12455Z" fill="black"/>
</svg>
