<svg width="388" height="530" viewBox="0 0 388 530" fill="none" xmlns="http://www.w3.org/2000/svg">
<g clip-path="url(#clip0_10:8)">
<path d="M67.5646 124.717H65.0901V45.721C65.0901 39.7168 64.0753 33.7714 62.1035 28.2243C60.1318 22.6771 57.2418 17.6369 53.5985 13.3913C49.9552 9.14572 45.63 5.77793 40.8699 3.48025C36.1097 1.18256 31.0078 -3.4043e-05 25.8554 -1.52586e-05H-117.765C-122.918 -3.4043e-05 -128.02 1.18256 -132.78 3.48025C-137.54 5.77794 -141.865 9.14572 -145.508 13.3913C-149.152 17.6369 -152.042 22.6771 -154.013 28.2243C-155.985 33.7714 -157 39.7168 -157 45.721V479.101C-157 485.105 -155.985 491.05 -154.013 496.598C-152.042 502.145 -149.152 507.185 -145.508 511.43C-141.865 515.676 -137.54 519.044 -132.78 521.342C-128.02 523.639 -122.918 524.822 -117.765 524.822H25.8554C31.0078 524.822 36.1097 523.639 40.8698 521.342C45.63 519.044 49.9552 515.676 53.5985 511.43C57.2418 507.185 60.1318 502.145 62.1035 496.598C64.0753 491.05 65.0901 485.105 65.0901 479.101V180.948H67.5646V124.717Z" fill="#E6E6E6"/>
<path d="M27.4385 11.895H8.69124C9.55338 14.3581 9.88246 17.0305 9.64954 19.6768C9.4166 22.323 8.62878 24.8619 7.3555 27.0698C6.08221 29.2777 4.36252 31.0867 2.34792 32.3377C0.333313 33.5886 -1.91435 34.243 -4.19711 34.2432H-86.4756C-88.7583 34.243 -91.006 33.5886 -93.0206 32.3377C-95.0352 31.0867 -96.7549 29.2777 -98.0282 27.0698C-99.3015 24.8619 -100.089 22.323 -100.322 19.6768C-100.555 17.0305 -100.226 14.3581 -99.3639 11.895H-116.874C-120.722 11.895 -124.532 12.7782 -128.087 14.494C-131.641 16.2099 -134.871 18.7249 -137.592 21.8955C-140.313 25.066 -142.471 28.83 -143.944 32.9726C-145.416 37.1151 -146.174 41.555 -146.174 46.0388V478.783C-146.174 483.267 -145.416 487.707 -143.944 491.849C-142.471 495.992 -140.313 499.756 -137.592 502.926C-134.871 506.097 -131.641 508.612 -128.087 510.328C-124.532 512.044 -120.722 512.927 -116.874 512.927H27.4385C31.2862 512.927 35.0963 512.044 38.6511 510.328C42.206 508.612 45.436 506.097 48.1567 502.926C50.8775 499.756 53.0357 495.992 54.5082 491.849C55.9806 487.707 56.7385 483.267 56.7385 478.783V46.0388C56.7385 41.555 55.9806 37.1151 54.5082 32.9726C53.0357 28.83 50.8775 25.066 48.1567 21.8955C45.4359 18.7249 42.2059 16.2099 38.6511 14.494C35.0963 12.7782 31.2862 11.895 27.4385 11.895Z" fill="white"/>
<path d="M8.6829 207.315H0.0664428C-0.236532 207.315 -0.527102 207.456 -0.741338 207.705C-0.955574 207.955 -1.07593 208.294 -1.07593 208.647V213.054C-1.07593 213.407 -0.955574 213.746 -0.741338 213.995C-0.527102 214.245 -0.236533 214.385 0.0664428 214.385H1.49431V220.989H7.25501V214.385H8.6829C8.98588 214.385 9.27645 214.245 9.49068 213.995C9.70492 213.746 9.82527 213.407 9.82527 213.054V208.647C9.82527 208.294 9.7049 207.955 9.49066 207.705C9.27643 207.456 8.98587 207.315 8.6829 207.315Z" fill="#E6E6E6"/>
<path d="M17.3132 247.651C12.0362 238.652 9.33852 227.939 9.60658 217.045C9.61137 216.793 9.54136 216.548 9.40843 216.35C9.2755 216.152 9.08784 216.013 8.87733 215.958V214.054H-0.222791V215.932H-0.348167C-0.47079 215.932 -0.592175 215.96 -0.705401 216.015C-0.818628 216.07 -0.92148 216.15 -1.00807 216.251C-1.09467 216.352 -1.16332 216.473 -1.21009 216.605C-1.25687 216.737 -1.28087 216.878 -1.28071 217.021C-1.28068 217.048 -1.27982 217.074 -1.27814 217.1C-0.56122 228.746 -2.9821 239.19 -8.54075 248.432C-8.86062 248.963 -9.02404 249.6 -9.00647 250.249L-8.01143 286.117C-7.98752 286.917 -7.69937 287.676 -7.20713 288.234C-6.7149 288.793 -6.05662 289.108 -5.36968 289.114H15.2134C15.9082 289.108 16.5733 288.785 17.067 288.216C17.5608 287.646 17.8441 286.874 17.8567 286.065L18.2402 251.239C18.2515 249.961 17.9281 248.709 17.3132 247.651Z" fill="#E6E6E6"/>
<path d="M14.0548 259.565H-3.86116C-4.12636 259.565 -4.38843 259.632 -4.6294 259.761C-4.87037 259.89 -5.08452 260.078 -5.2572 260.313C-5.42989 260.547 -5.557 260.823 -5.62984 261.12C-5.70267 261.417 -5.7195 261.729 -5.67917 262.034L-2.97181 282.542H12.5743L15.8627 262.104C15.9125 261.794 15.9032 261.475 15.8353 261.171C15.7675 260.866 15.6429 260.582 15.4703 260.34C15.2977 260.097 15.0813 259.902 14.8367 259.768C14.5921 259.634 14.3251 259.565 14.0548 259.565H14.0548Z" fill="white"/>
<path d="M2.34444 357.983C-2.93254 348.985 -5.63022 338.272 -5.36216 327.377C-5.35736 327.126 -5.42738 326.88 -5.56031 326.682C-5.69324 326.484 -5.88089 326.346 -6.09141 326.291V324.386H-15.1915V326.264H-15.3169C-15.4395 326.265 -15.5609 326.293 -15.6741 326.348C-15.7874 326.403 -15.8902 326.483 -15.9768 326.584C-16.0634 326.685 -16.1321 326.805 -16.1788 326.937C-16.2256 327.069 -16.2496 327.211 -16.2495 327.354C-16.2494 327.38 -16.2486 327.407 -16.2469 327.433C-15.53 339.079 -17.9508 349.523 -23.5095 358.764C-23.8294 359.296 -23.9928 359.933 -23.9752 360.582L-22.9802 396.45C-22.9562 397.25 -22.6681 398.009 -22.1759 398.567C-21.6837 399.125 -21.0254 399.441 -20.3384 399.447H0.244661C0.939436 399.44 1.60453 399.118 2.09828 398.548C2.59202 397.979 2.87538 397.207 2.88798 396.397L3.27144 361.572C3.28279 360.294 2.95942 359.042 2.34444 357.983Z" fill="#E6E6E6"/>
<path d="M-0.913906 369.898H-18.8299C-19.0951 369.898 -19.3572 369.965 -19.5981 370.094C-19.8391 370.223 -20.0533 370.411 -20.226 370.645C-20.3986 370.88 -20.5258 371.155 -20.5986 371.453C-20.6714 371.75 -20.6882 372.062 -20.6479 372.367L-17.9405 392.874H-2.3945L0.893972 372.436C0.943775 372.127 0.934443 371.808 0.866608 371.503C0.798773 371.198 0.674112 370.915 0.501507 370.672C0.328901 370.43 0.112591 370.235 -0.132048 370.101C-0.376686 369.967 -0.643635 369.898 -0.913906 369.898Z" fill="white"/>
<path d="M27.5028 191.331H-23.8596C-20.2686 168.707 -21.0948 141.388 -23.8596 112.007H27.5028C24.8116 141.388 24.0074 168.707 27.5028 191.331Z" fill="#E6E6E6"/>
<path d="M2.13107 163.929C8.96641 163.929 14.5076 157.471 14.5076 149.506C14.5076 141.541 8.96641 135.083 2.13107 135.083C-4.70427 135.083 -10.2454 141.541 -10.2454 149.506C-10.2454 157.471 -4.70427 163.929 2.13107 163.929Z" fill="white"/>
<path d="M27.5028 187.726H-23.8596C-20.2686 165.102 -21.0948 137.782 -23.8596 108.402H27.5028C24.8116 137.782 24.0074 165.102 27.5028 187.726Z" fill="#E6E6E6"/>
<path d="M2.13107 160.323C8.96641 160.323 14.5076 153.866 14.5076 145.9C14.5076 137.935 8.96641 131.478 2.13107 131.478C-4.70427 131.478 -10.2454 137.935 -10.2454 145.9C-10.2454 153.866 -4.70427 160.323 2.13107 160.323Z" fill="white"/>
<path d="M27.5028 191.331H-23.8596C-20.2686 168.707 -21.0948 141.388 -23.8596 112.007H27.5028C24.8116 141.388 24.0074 168.707 27.5028 191.331Z" fill="#E6E6E6"/>
<path d="M2.13107 163.929C8.96641 163.929 14.5076 157.471 14.5076 149.506C14.5076 141.541 8.96641 135.083 2.13107 135.083C-4.70427 135.083 -10.2454 141.541 -10.2454 149.506C-10.2454 157.471 -4.70427 163.929 2.13107 163.929Z" fill="white"/>
<path d="M39.2605 181.957H-129.06V203.591H39.2605V181.957Z" fill="#E6E6E6"/>
<path d="M39.2605 289.405H-129.06V311.039H39.2605V289.405Z" fill="#E6E6E6"/>
<path d="M39.2605 396.853H-129.06V418.487H39.2605V396.853Z" fill="#E6E6E6"/>
<path d="M332.061 484.621L290.127 450.058C304.27 434.004 317.133 411.143 329.434 385.296L371.368 419.858C354.612 442.034 340.418 463.798 332.061 484.621Z" fill="#6C63FF"/>
<path d="M332.072 447.823C338.907 447.823 344.449 441.366 344.449 433.4C344.449 425.435 338.907 418.978 332.072 418.978C325.237 418.978 319.696 425.435 319.696 433.4C319.696 441.366 325.237 447.823 332.072 447.823Z" fill="white"/>
<path d="M129.777 326.904H125.174C125.012 326.904 124.857 326.979 124.742 327.112C124.628 327.245 124.564 327.426 124.564 327.615V329.969C124.564 330.063 124.58 330.155 124.61 330.241C124.641 330.328 124.686 330.406 124.742 330.472C124.799 330.538 124.866 330.591 124.94 330.626C125.015 330.662 125.094 330.68 125.174 330.68H125.937V334.208H129.014V330.68H129.777C129.939 330.68 130.094 330.606 130.209 330.472C130.323 330.339 130.387 330.158 130.387 329.969V327.615C130.387 327.426 130.323 327.245 130.209 327.112C130.094 326.979 129.939 326.904 129.777 326.904Z" fill="#E6E6E6"/>
<path d="M134.387 348.451C131.568 343.644 130.127 337.921 130.271 332.101C130.273 331.967 130.236 331.836 130.165 331.73C130.094 331.624 129.993 331.55 129.881 331.521V330.503H125.02V331.507H124.953C124.887 331.507 124.822 331.522 124.762 331.551C124.701 331.58 124.646 331.623 124.6 331.677C124.554 331.731 124.517 331.796 124.492 331.866C124.467 331.937 124.454 332.012 124.454 332.089C124.454 332.103 124.455 332.117 124.456 332.131C124.904 338.07 123.53 344.001 120.576 348.869C120.405 349.152 120.318 349.493 120.327 349.839L120.859 369.001C120.871 369.428 121.025 369.833 121.288 370.132C121.551 370.43 121.903 370.598 122.27 370.602H133.266C133.637 370.598 133.992 370.426 134.256 370.122C134.52 369.817 134.671 369.405 134.678 368.973L134.883 350.368C134.889 349.686 134.716 349.017 134.387 348.451Z" fill="#6C63FF"/>
<path opacity="0.2" d="M128.817 327.671C128.817 328.078 128.679 328.468 128.432 328.756C128.185 329.043 127.85 329.205 127.501 329.205C127.152 329.205 126.817 329.043 126.57 328.756C126.323 328.468 126.184 328.078 126.184 327.671" fill="black"/>
<path d="M132.246 352.143H122.963V359.354H132.246V352.143Z" fill="white"/>
<path d="M275.442 401.759H266.825C266.522 401.759 266.232 401.9 266.018 402.149C265.803 402.399 265.683 402.738 265.683 403.091V407.498C265.683 407.851 265.803 408.19 266.018 408.439C266.232 408.689 266.522 408.829 266.825 408.829H268.253V415.433H274.014V408.829H275.442C275.745 408.829 276.035 408.689 276.25 408.439C276.464 408.19 276.584 407.851 276.584 407.498V403.091C276.584 402.738 276.464 402.399 276.25 402.149C276.035 401.9 275.745 401.759 275.442 401.759Z" fill="#E6E6E6"/>
<path d="M284.072 442.095C278.795 433.097 276.097 422.383 276.365 411.489C276.37 411.237 276.3 410.992 276.167 410.794C276.034 410.596 275.847 410.457 275.636 410.402V408.498H266.536V410.376H266.411C266.288 410.376 266.167 410.404 266.053 410.459C265.94 410.514 265.837 410.594 265.751 410.695C265.664 410.797 265.596 410.917 265.549 411.049C265.502 411.181 265.478 411.322 265.478 411.465C265.478 411.492 265.479 411.518 265.481 411.544C266.198 423.19 263.777 433.634 258.218 442.876C257.898 443.407 257.735 444.045 257.752 444.693L258.747 480.561C258.771 481.361 259.06 482.12 259.552 482.678C260.044 483.237 260.702 483.552 261.389 483.558H281.972C282.667 483.552 283.332 483.229 283.826 482.66C284.32 482.09 284.603 481.318 284.616 480.509L284.999 445.683C285.01 444.405 284.687 443.153 284.072 442.095Z" fill="#6C63FF"/>
<path opacity="0.2" d="M273.646 403.195C273.646 403.957 273.386 404.688 272.924 405.226C272.461 405.765 271.835 406.068 271.181 406.068C270.527 406.068 269.9 405.765 269.438 405.226C268.976 404.688 268.716 403.957 268.716 403.195" fill="black"/>
<path d="M280.814 454.009H262.898C262.633 454.009 262.37 454.076 262.13 454.205C261.889 454.334 261.674 454.522 261.502 454.757C261.329 454.991 261.202 455.267 261.129 455.564C261.056 455.861 261.039 456.173 261.08 456.479L263.787 476.986H279.333L282.622 456.548C282.671 456.238 282.662 455.92 282.594 455.615C282.526 455.31 282.402 455.026 282.229 454.784C282.057 454.541 281.84 454.346 281.596 454.212C281.351 454.079 281.084 454.009 280.814 454.009Z" fill="white"/>
<path d="M250.858 484.564H199.495C203.086 461.94 202.26 434.62 199.495 405.24H250.858C248.166 434.62 247.362 461.94 250.858 484.564Z" fill="#6C63FF"/>
<path d="M225.486 457.161C232.321 457.161 237.862 450.704 237.862 442.739C237.862 434.773 232.321 428.316 225.486 428.316C218.65 428.316 213.109 434.773 213.109 442.739C213.109 450.704 218.65 457.161 225.486 457.161Z" fill="white"/>
<path d="M40.773 234.92L52.3033 233.698L59.6412 212.933L46.5385 204.382L40.773 234.92Z" fill="#FFB8B8"/>
<path d="M146.592 291.927C146.976 290.813 147.126 289.609 147.032 288.413C146.937 287.218 146.6 286.066 146.049 285.052C145.497 284.038 144.747 283.191 143.86 282.581C142.972 281.972 141.973 281.616 140.945 281.545L123.042 280.301L120.406 290.515L138.836 296.414C140.376 296.907 142.018 296.722 143.448 295.894C144.879 295.067 145.998 293.655 146.592 291.927Z" fill="#FFB8B8"/>
<path d="M127.369 296.585L127.172 277.418L87.406 270.024L56.771 229.08C55.1771 226.95 52.9747 225.565 50.5717 225.182C48.1687 224.799 45.7281 225.444 43.7019 226.998C42.4751 227.938 41.4406 229.181 40.6714 230.639C39.9022 232.097 39.4172 233.734 39.2506 235.434C39.0839 237.134 39.2398 238.856 39.7071 240.478C40.1744 242.101 40.9418 243.583 41.955 244.822L67.2286 281.067L127.369 296.585Z" fill="#575A89"/>
<path d="M31.863 512.205H42.3453L68.3452 375.219L95.2806 417.537L111.004 509.151H120.962L118.866 410.819L83.7501 305.768H49.1587C39.7058 325.704 32.2904 346.255 40.7729 367.455L31.863 512.205Z" fill="#2F2E41"/>
<path d="M104.578 520.525C104.462 520.957 104.427 521.413 104.474 521.863C104.521 522.312 104.65 522.745 104.852 523.132C105.053 523.519 105.324 523.851 105.644 524.107C105.965 524.362 106.329 524.536 106.711 524.615L132.361 529.919C133.375 530.135 134.421 529.912 135.303 529.291C136.185 528.67 136.842 527.694 137.149 526.548C137.448 525.453 137.406 524.27 137.031 523.207C136.656 522.145 135.972 521.27 135.098 520.737C129.458 517.362 124.604 512.445 120.952 506.405C118.133 509.464 114.982 509.177 111.636 506.922L108.087 507.439L104.578 520.525Z" fill="#2F2E41"/>
<path d="M27.0097 520.525C26.8938 520.957 26.8582 521.413 26.9053 521.863C26.9525 522.312 27.0812 522.745 27.2831 523.132C27.4849 523.519 27.7551 523.851 28.0758 524.107C28.3964 524.362 28.7602 524.536 29.1428 524.615L54.7929 529.919C55.8065 530.135 56.8529 529.912 57.7348 529.291C58.6167 528.67 59.2732 527.694 59.5806 526.548C59.8795 525.453 59.8378 524.27 59.4626 523.207C59.0875 522.145 58.403 521.27 57.5293 520.737C51.8894 517.362 47.0355 512.445 43.3837 506.405C40.5645 509.464 37.4136 509.177 34.0677 506.922L30.5188 507.439L27.0097 520.525Z" fill="#2F2E41"/>
<path d="M59.9031 220.567C68.0079 220.567 74.5782 212.911 74.5782 203.466C74.5782 194.021 68.0079 186.365 59.9031 186.365C51.7982 186.365 45.2279 194.021 45.2279 203.466C45.2279 212.911 51.7982 220.567 59.9031 220.567Z" fill="#FFB8B8"/>
<path d="M46.8002 310.349L85.0604 309.127L73.8242 267.918C80.807 254.873 73.7794 241.841 63.8338 228.813L55.9722 222.705L43.3935 221.483C37.9474 228.274 34.9675 237.258 35.0779 246.552C35.3269 266.453 38.3509 288.118 46.8002 310.349Z" fill="#575A89"/>
<path d="M134.705 338.088C135.433 337.239 135.979 336.201 136.295 335.058C136.612 333.916 136.691 332.702 136.526 331.517C136.362 330.332 135.957 329.21 135.347 328.242C134.737 327.275 133.939 326.491 133.017 325.953L116.978 316.603L111.107 324.785L126.059 338.657C127.309 339.816 128.881 340.398 130.475 340.294C132.07 340.189 133.575 339.403 134.705 338.088Z" fill="#FFB8B8"/>
<path d="M115.459 333.558L121.748 315.846L87.6847 290.818L73.3414 239.132C72.5952 236.443 71.0378 234.16 68.9578 232.706C66.8779 231.252 64.4163 230.727 62.0291 231.226C60.5837 231.528 59.213 232.197 58.0137 233.184C56.8145 234.172 55.816 235.454 55.0889 236.941C54.3617 238.428 53.9237 240.082 53.8057 241.788C53.6876 243.494 53.8926 245.209 54.4059 246.812L65.4062 291.721L115.459 333.558Z" fill="#575A89"/>
<path d="M35.7939 196.748C35.7939 203.402 39.5023 213.707 44.1797 218.124C47.3269 221.096 51.486 220.971 53.0896 216.903C54.7346 212.729 60.4051 202.919 70.3853 196.748C83.6897 188.521 65.6671 174.447 53.0896 176.593C43.6383 178.205 35.7939 185.616 35.7939 196.748Z" fill="#2F2E41"/>
<path d="M44.7038 187.586C50.493 187.586 55.186 182.117 55.186 175.371C55.186 168.625 50.493 163.156 44.7038 163.156C38.9146 163.156 34.2216 168.625 34.2216 175.371C34.2216 182.117 38.9146 187.586 44.7038 187.586Z" fill="#2F2E41"/>
<path d="M56.7584 171.096C56.7573 168.016 55.7576 165.051 53.9594 162.794C52.1613 160.537 49.6976 159.156 47.0623 158.927C47.3228 158.904 47.5831 158.881 47.8485 158.881C50.6285 158.881 53.2947 160.168 55.2605 162.458C57.2263 164.749 58.3307 167.856 58.3307 171.096C58.3307 174.335 57.2263 177.442 55.2605 179.733C53.2947 182.024 50.6285 183.311 47.8485 183.311C47.5831 183.311 47.3228 183.287 47.0623 183.265C49.6976 183.036 52.1613 181.654 53.9594 179.397C55.7575 177.141 56.7573 174.175 56.7584 171.096Z" fill="#2F2E41"/>
<path d="M60.1651 209.574C61.4677 209.574 62.5236 207.933 62.5236 205.909C62.5236 203.885 61.4677 202.245 60.1651 202.245C58.8625 202.245 57.8066 203.885 57.8066 205.909C57.8066 207.933 58.8625 209.574 60.1651 209.574Z" fill="#FFB8B8"/>
<path d="M357.16 489.803H193.984L159.43 299.451H129.941V290.91H165.371L199.925 481.262H357.16V489.803Z" fill="#3F3D56"/>
<path d="M217.897 524.579C226.571 524.579 233.603 516.384 233.603 506.276C233.603 496.167 226.571 487.973 217.897 487.973C209.222 487.973 202.19 496.167 202.19 506.276C202.19 516.384 209.222 524.579 217.897 524.579Z" fill="#3F3D56"/>
<path d="M335.171 524.579C343.846 524.579 350.878 516.384 350.878 506.276C350.878 496.167 343.846 487.973 335.171 487.973C326.497 487.973 319.465 496.167 319.465 506.276C319.465 516.384 326.497 524.579 335.171 524.579Z" fill="#3F3D56"/>
<path d="M354.185 485.781H195.424L167.412 324.465H380.473C381.56 324.466 382.634 324.74 383.621 325.27C384.609 325.8 385.486 326.573 386.193 327.536C386.899 328.499 387.419 329.629 387.715 330.848C388.011 332.067 388.077 333.346 387.909 334.598L361.62 478.371C361.349 480.44 360.449 482.326 359.084 483.686C357.719 485.046 355.981 485.79 354.185 485.781ZM197.148 483.34H354.185C355.481 483.347 356.736 482.81 357.721 481.829C358.706 480.847 359.355 479.486 359.55 477.993L385.839 334.219C385.961 333.315 385.913 332.392 385.7 331.512C385.486 330.632 385.111 329.817 384.601 329.122C384.091 328.427 383.458 327.869 382.745 327.486C382.033 327.104 381.257 326.906 380.473 326.906H169.954L197.148 483.34Z" fill="#3F3D56"/>
<path d="M226.288 485.265L207.943 325.884L210.009 325.487L228.354 484.867L226.288 485.265Z" fill="#3F3D56"/>
<path d="M328.291 484.041L326.223 483.65L344.032 325.49L346.099 325.881L328.291 484.041Z" fill="#3F3D56"/>
<path d="M279.692 325.686H277.598V485.066H279.692V325.686Z" fill="#3F3D56"/>
<path d="M178.11 368.393L178.105 370.833L380.819 371.405L380.824 368.965L178.11 368.393Z" fill="#3F3D56"/>
<path d="M366.52 443.779L188.43 445.198L188.444 447.638L366.534 446.22L366.52 443.779Z" fill="#3F3D56"/>
<path d="M133.082 301.282C139.443 301.282 144.6 298.004 144.6 293.96C144.6 289.917 139.443 286.639 133.082 286.639C126.721 286.639 121.564 289.917 121.564 293.96C121.564 298.004 126.721 301.282 133.082 301.282Z" fill="#3F3D56"/>
</g>
<defs>
<clipPath id="clip0_10:8">
<rect width="545" height="530" fill="white" transform="translate(-157)"/>
</clipPath>
</defs>
</svg>
