<svg width="189" height="137" viewBox="0 0 189 137" fill="none" xmlns="http://www.w3.org/2000/svg">
<path d="M65.3333 66.6667H72V33.3333C72 32.4493 72.3512 31.6014 72.9763 30.9763C73.6014 30.3512 74.4493 30 75.3333 30H115.333V23.3333C115.333 22.4493 114.982 21.6014 114.357 20.9763C113.732 20.3512 112.884 20 112 20H101.83C100.99 12.52 94.7 6.66667 87 6.66667C79.3 6.66667 73.01 12.52 72.17 20H62C61.1159 20 60.2681 20.3512 59.643 20.9763C59.0178 21.6014 58.6667 22.4493 58.6667 23.3333V60C58.6667 61.7681 59.369 63.4638 60.6193 64.714C61.8695 65.9643 63.5652 66.6667 65.3333 66.6667ZM87 13.3333C91.0233 13.3333 94.3933 16.2 95.1667 20H78.8333C79.6067 16.2 82.9767 13.3333 87 13.3333Z" fill="#22668A"/>
<path d="M122 36.6667H82C81.1159 36.6667 80.2681 37.0179 79.643 37.643C79.0178 38.2681 78.6667 39.116 78.6667 40V66.6667C78.6667 68.4348 79.369 70.1305 80.6193 71.3807C81.8695 72.631 83.5652 73.3333 85.3333 73.3333H118.667C120.435 73.3333 122.13 72.631 123.381 71.3807C124.631 70.1305 125.333 68.4348 125.333 66.6667V40C125.333 39.116 124.982 38.2681 124.357 37.643C123.732 37.0179 122.884 36.6667 122 36.6667ZM102 60C92.81 60 85.3333 52.5233 85.3333 43.3333H92C92 48.8467 96.4867 53.3333 102 53.3333C107.513 53.3333 112 48.8467 112 43.3333H118.667C118.667 52.5233 111.19 60 102 60Z" fill="#22668A"/>
<path d="M12.69 129.36C11.406 129.36 10.146 129.198 8.91 128.874C7.674 128.55 6.54 128.064 5.508 127.416C4.488 126.768 3.648 125.958 2.988 124.986C2.328 124.014 1.932 122.874 1.8 121.566H7.182C7.446 122.742 8.07 123.648 9.054 124.284C10.05 124.92 11.256 125.238 12.672 125.238C14.1 125.238 15.33 124.968 16.362 124.428C17.406 123.888 17.928 123.066 17.928 121.962C17.928 120.978 17.508 120.246 16.668 119.766C15.828 119.286 14.778 118.92 13.518 118.668L9.018 117.75C7.05 117.378 5.49 116.598 4.338 115.41C3.186 114.222 2.592 112.626 2.556 110.622C2.544 108.99 2.976 107.58 3.852 106.392C4.74 105.192 5.94 104.268 7.452 103.62C8.976 102.972 10.68 102.648 12.564 102.648C14.808 102.648 16.692 103.002 18.216 103.71C19.752 104.406 20.916 105.354 21.708 106.554C22.512 107.742 22.926 109.068 22.95 110.532H17.676C17.532 109.164 16.998 108.204 16.074 107.652C15.15 107.1 14.01 106.824 12.654 106.824C11.25 106.824 10.134 107.124 9.306 107.724C8.478 108.312 8.064 109.074 8.064 110.01C8.064 110.766 8.31 111.378 8.802 111.846C9.306 112.314 10.254 112.698 11.646 112.998L16.11 113.916C17.694 114.228 18.96 114.69 19.908 115.302C20.856 115.914 21.564 116.604 22.032 117.372C22.512 118.14 22.824 118.926 22.968 119.73C23.124 120.522 23.202 121.254 23.202 121.926C23.202 123.33 22.764 124.596 21.888 125.724C21.012 126.84 19.782 127.728 18.198 128.388C16.626 129.036 14.79 129.36 12.69 129.36ZM38.0236 114.042H33.8836L33.9196 123.96C33.9196 124.644 34.0516 125.076 34.3156 125.256C34.5796 125.424 34.9996 125.508 35.5756 125.508H38.0776V128.748C37.8256 128.856 37.4476 128.958 36.9436 129.054C36.4396 129.15 35.7316 129.198 34.8196 129.198C33.1876 129.198 31.9216 128.988 31.0216 128.568C30.1336 128.148 29.5156 127.56 29.1676 126.804C28.8196 126.048 28.6456 125.172 28.6456 124.176V114.042H25.6216V110.388H28.8256L30.1396 104.772H33.8836V110.37H38.0236V114.042ZM49.3006 129.36C47.4766 129.36 45.8866 128.97 44.5306 128.19C43.1866 127.41 42.1426 126.306 41.3986 124.878C40.6666 123.45 40.3006 121.758 40.3006 119.802C40.3006 117.846 40.6666 116.136 41.3986 114.672C42.1426 113.208 43.1866 112.068 44.5306 111.252C45.8866 110.436 47.4826 110.028 49.3186 110.028C51.1546 110.028 52.7446 110.43 54.0886 111.234C55.4326 112.038 56.4706 113.172 57.2026 114.636C57.9346 116.088 58.3006 117.81 58.3006 119.802C58.3006 121.674 57.9406 123.33 57.2206 124.77C56.5126 126.198 55.4866 127.32 54.1426 128.136C52.8106 128.952 51.1966 129.36 49.3006 129.36ZM49.3186 125.454C50.2426 125.454 50.9866 125.184 51.5506 124.644C52.1146 124.104 52.5226 123.396 52.7746 122.52C53.0386 121.632 53.1706 120.666 53.1706 119.622C53.1706 118.638 53.0506 117.714 52.8106 116.85C52.5706 115.974 52.1686 115.266 51.6046 114.726C51.0526 114.174 50.2906 113.898 49.3186 113.898C48.3946 113.898 47.6446 114.156 47.0686 114.672C46.5046 115.188 46.0906 115.878 45.8266 116.742C45.5626 117.606 45.4306 118.566 45.4306 119.622C45.4306 120.594 45.5506 121.53 45.7906 122.43C46.0306 123.318 46.4326 124.044 46.9966 124.608C47.5606 125.172 48.3346 125.454 49.3186 125.454ZM61.8047 129V110.388H66.8627V114.798C67.3067 113.37 68.0327 112.218 69.0407 111.342C70.0487 110.466 71.2907 110.028 72.7667 110.028C73.1627 110.028 73.4327 110.064 73.5767 110.136V115.14C73.4687 115.104 73.3367 115.08 73.1807 115.068C73.0367 115.044 72.9047 115.026 72.7847 115.014C70.7087 114.834 69.2327 115.11 68.3567 115.842C67.4927 116.574 67.0607 117.564 67.0607 118.812V129H61.8047ZM80.6442 120.9C80.6322 122.328 80.9742 123.462 81.6702 124.302C82.3662 125.142 83.3442 125.562 84.6042 125.562C85.5042 125.562 86.2902 125.37 86.9622 124.986C87.6462 124.602 88.1202 123.972 88.3842 123.096H93.1182C92.9142 124.416 92.3862 125.544 91.5342 126.48C90.6942 127.416 89.6742 128.13 88.4742 128.622C87.2742 129.114 86.0262 129.36 84.7302 129.36C82.8822 129.36 81.2622 128.976 79.8702 128.208C78.4782 127.428 77.3922 126.33 76.6122 124.914C75.8322 123.498 75.4422 121.83 75.4422 119.91C75.4422 118.05 75.7962 116.376 76.5042 114.888C77.2122 113.388 78.2382 112.206 79.5822 111.342C80.9382 110.466 82.5642 110.028 84.4602 110.028C86.3562 110.028 87.9462 110.43 89.2302 111.234C90.5262 112.026 91.4982 113.136 92.1462 114.564C92.8062 115.98 93.1362 117.618 93.1362 119.478V120.9H80.6442ZM80.6262 117.768H88.2222C88.2222 116.64 87.9102 115.68 87.2862 114.888C86.6622 114.096 85.7202 113.7 84.4602 113.7C83.6442 113.7 82.9482 113.898 82.3722 114.294C81.8082 114.69 81.3762 115.2 81.0762 115.824C80.7762 116.436 80.6262 117.084 80.6262 117.768ZM97.9732 129V102.972H106.775C108.635 102.972 110.291 103.284 111.743 103.908C113.195 104.532 114.335 105.456 115.163 106.68C116.003 107.904 116.423 109.41 116.423 111.198C116.423 112.926 116.033 114.402 115.253 115.626C114.485 116.838 113.411 117.768 112.031 118.416C110.651 119.052 109.049 119.37 107.225 119.37H101.393V129H97.9732ZM101.375 116.562H107.153C108.929 116.562 110.375 116.064 111.491 115.068C112.619 114.072 113.183 112.716 113.183 111C113.183 109.272 112.607 107.964 111.455 107.076C110.303 106.188 108.815 105.744 106.991 105.744H101.375V116.562ZM122.025 120.468C122.025 121.644 122.217 122.712 122.601 123.672C122.997 124.62 123.591 125.376 124.383 125.94C125.187 126.504 126.189 126.786 127.389 126.786C128.577 126.786 129.597 126.51 130.449 125.958C131.313 125.406 131.865 124.608 132.105 123.564H135.255C135.027 124.824 134.523 125.886 133.743 126.75C132.963 127.614 132.021 128.268 130.917 128.712C129.813 129.144 128.661 129.36 127.461 129.36C125.721 129.36 124.191 128.982 122.871 128.226C121.551 127.47 120.519 126.384 119.775 124.968C119.031 123.552 118.659 121.854 118.659 119.874C118.659 117.918 118.995 116.202 119.667 114.726C120.339 113.25 121.311 112.098 122.583 111.27C123.867 110.442 125.409 110.028 127.209 110.028C129.837 110.028 131.853 110.862 133.257 112.53C134.661 114.186 135.363 116.424 135.363 119.244V120.468H122.025ZM122.043 118.218H132.159C132.159 116.622 131.751 115.278 130.935 114.186C130.119 113.094 128.871 112.548 127.191 112.548C126.027 112.548 125.061 112.83 124.293 113.394C123.525 113.946 122.955 114.66 122.583 115.536C122.211 116.4 122.031 117.294 122.043 118.218ZM146.648 129.36C144.224 129.36 142.304 128.532 140.888 126.876C139.484 125.22 138.782 122.802 138.782 119.622C138.782 116.718 139.418 114.396 140.69 112.656C141.974 110.904 143.876 110.028 146.396 110.028C147.572 110.028 148.574 110.22 149.402 110.604C150.242 110.988 150.914 111.438 151.418 111.954C151.934 112.47 152.294 112.932 152.498 113.34V102.252H155.846V129H153.308L152.948 125.184C152.792 125.664 152.498 126.234 152.066 126.894C151.634 127.554 150.986 128.13 150.122 128.622C149.258 129.114 148.1 129.36 146.648 129.36ZM147.242 126.804C149.126 126.804 150.47 126.234 151.274 125.094C152.09 123.942 152.498 122.064 152.498 119.46C152.474 117.288 152.066 115.608 151.274 114.42C150.482 113.22 149.162 112.62 147.314 112.62C145.79 112.62 144.542 113.166 143.57 114.258C142.61 115.338 142.13 117.072 142.13 119.46C142.13 121.788 142.562 123.594 143.426 124.878C144.302 126.162 145.574 126.804 147.242 126.804ZM165.262 102.99V106.446H161.86V102.99H165.262ZM165.19 110.388V129H161.968V110.388H165.19ZM176.195 129.36C174.383 129.36 172.907 128.886 171.767 127.938C170.627 126.99 170.057 125.664 170.057 123.96C170.057 121.896 170.777 120.36 172.217 119.352C173.657 118.344 175.967 117.804 179.147 117.732L182.477 117.642V116.184C182.477 115.044 182.129 114.144 181.433 113.484C180.749 112.812 179.693 112.476 178.265 112.476C177.197 112.488 176.255 112.746 175.439 113.25C174.623 113.742 174.101 114.54 173.873 115.644H170.939C171.035 113.832 171.743 112.446 173.063 111.486C174.383 110.514 176.171 110.028 178.427 110.028C180.851 110.028 182.663 110.538 183.863 111.558C185.075 112.578 185.681 114.06 185.681 116.004V129H182.837L182.603 125.508C181.871 126.96 180.953 127.968 179.849 128.532C178.745 129.084 177.527 129.36 176.195 129.36ZM177.203 126.966C178.031 126.966 178.847 126.768 179.651 126.372C180.467 125.976 181.139 125.472 181.667 124.86C182.195 124.236 182.465 123.576 182.477 122.88V119.694L179.705 119.748C177.569 119.784 175.967 120.102 174.899 120.702C173.831 121.29 173.297 122.268 173.297 123.636C173.297 124.692 173.657 125.514 174.377 126.102C175.109 126.678 176.051 126.966 177.203 126.966Z" fill="#22668A"/>
</svg>
